<svg width="36" height="63" viewBox="0 0 36 63" fill="none" xmlns="http://www.w3.org/2000/svg">
<g id="Group 105">
<g id="Group 91">
<path id="P" d="M20.3113 11.4C23.7034 11.4 26.3274 12.52 28.1833 14.76C30.0394 16.968 30.7114 19.72 30.1993 23.016C29.7193 26.248 28.2634 28.888 25.8314 30.936C23.3994 32.952 20.2953 33.96 16.5193 33.96H10.9033L8.98335 45H2.35935L8.26335 11.4H20.3113ZM23.6233 22.536C23.9113 21.032 23.6873 19.832 22.9513 18.936C22.2153 18.04 20.9993 17.592 19.3033 17.592H13.7833L12.0073 27.768H17.1913C18.9513 27.768 20.3913 27.288 21.5113 26.328C22.6313 25.368 23.3353 24.104 23.6233 22.536Z" fill="url(#paint0_linear)"/>
<path id="P_2" d="M18.96 11.4C22.352 11.4 24.976 12.52 26.832 14.76C28.688 16.968 29.36 19.72 28.848 23.016C28.368 26.248 26.912 28.888 24.48 30.936C22.048 32.952 18.944 33.96 15.168 33.96H9.552L7.632 45H1.008L6.912 11.4H18.96ZM22.272 22.536C22.56 21.032 22.336 19.832 21.6 18.936C20.864 18.04 19.648 17.592 17.952 17.592H12.432L10.656 27.768H15.84C17.6 27.768 19.04 27.288 20.16 26.328C21.28 25.368 21.984 24.104 22.272 22.536Z" fill="url(#paint1_linear)"/>
</g>
<g id="Group 5">
<g id="Group 2">
<rect id="Rectangle 3" x="26.2372" y="39.1179" width="9.6063" height="14.4094" rx="3" transform="rotate(6.4602 26.2372 39.1179)" fill="url(#paint2_linear)"/>
<rect id="Rectangle 4" x="28.9296" y="45.2234" width="2.88189" height="2.88189" rx="1" transform="rotate(6.4602 28.9296 45.2234)" fill="#E43C3A"/>
</g>
<g id="Group 1">
<rect id="Rectangle 3_2" x="13" y="37.1978" width="11.915" height="17.8725" rx="3" transform="rotate(-10.6296 13 37.1978)" fill="url(#paint3_linear)"/>
<rect id="Rectangle 4_2" x="18.4174" y="43.4549" width="3.57451" height="3.57451" rx="1" transform="rotate(-10.6296 18.4174 43.4549)" fill="#050505" fill-opacity="0.56"/>
</g>
<g id="Group 3">
<rect id="Rectangle 5" width="3.97525" height="3.97525" rx="1.98762" transform="matrix(-1 0 0 1 24.7121 53.0247)" fill="#FFC01E"/>
<rect id="Rectangle 6" width="1.80693" height="1.80693" rx="0.903466" transform="matrix(-1 0 0 1 23.628 54.1089)" fill="#E8A700"/>
</g>
<g id="Group 4">
<rect id="Rectangle 5_2" width="5.96287" height="5.96287" rx="2.98144" transform="matrix(-1 0 0 1 20.7369 50.3746)" fill="#FFC01E"/>
<rect id="Rectangle 6_2" width="2.7104" height="2.7104" rx="1.3552" transform="matrix(-1 0 0 1 19.1106 52.0008)" fill="#E8A700"/>
</g>
</g>
</g>
<defs>
<linearGradient id="paint0_linear" x1="6.66621" y1="31.0495" x2="33.7027" y2="31.0495" gradientUnits="userSpaceOnUse">
<stop stop-color="#7A1D1E"/>
<stop offset="1" stop-color="#852726"/>
</linearGradient>
<linearGradient id="paint1_linear" x1="5.31487" y1="31.0495" x2="32.3514" y2="31.0495" gradientUnits="userSpaceOnUse">
<stop stop-color="#9F2627"/>
<stop offset="1" stop-color="#E43C3A"/>
</linearGradient>
<linearGradient id="paint2_linear" x1="31.4126" y1="45.8664" x2="17.302" y2="50.798" gradientUnits="userSpaceOnUse">
<stop stop-color="white"/>
<stop offset="1" stop-color="#101A3F"/>
</linearGradient>
<linearGradient id="paint3_linear" x1="18.9575" y1="37.1978" x2="18.9575" y2="55.0704" gradientUnits="userSpaceOnUse">
<stop stop-color="white"/>
<stop offset="1" stop-color="#F4F4F4"/>
</linearGradient>
</defs>
</svg>
